# xmcd CD database file
#
# Track frame offsets:
#	150
#	33209
#	49963
#	77028
#	101411
#	127341
#	150123
#	175151
#	202870
#	222435
#	244065
#	270834
#
# Disc length: 3904 seconds
#
# Revision: 0
# Processed by: cddbd v1.5.1PL0 Copyright (c) Steve Scherf et al.
# Submitted via: CD2WAV32(JP) R3.22
#
DISCID=960f3e0c
DTITLE=Every Little Thing - ACOUSTIC：LATTE
DYEAR=2005
DGENRE=Pop
TTITLE0=FOREVER YOURS
TTITLE1=water（s）
TTITLE2=nostalgia
TTITLE3=愛のカケラ
TTITLE4=Time goes by
TTITLE5=ささやかな祈り
TTITLE6=しあわせの風景
TTITLE7=fragile
TTITLE8=鮮やかなもの
TTITLE9=NECESSARY
TTITLE10=愛の謳
TTITLE11=Over and Over
EXTD=
EXTT0=
EXTT1=
EXTT2=
EXTT3=
EXTT4=
EXTT5=
EXTT6=
EXTT7=
EXTT8=
EXTT9=
EXTT10=
EXTT11=
PLAYORDER=
